<svg xmlns="http://www.w3.org/2000/svg" fill="none" viewBox="0 0 202 40">
  <path fill="currentColor" fill-rule="evenodd" d="M25.5557 11.6853C23.9112 10.5865 21.9778 10 20 10V0c3.9556 0 7.8224 1.17298 11.1114 3.37061 3.289 2.19762 5.8524 5.3212 7.3662 8.97569 1.5137 3.6545 1.9098 7.6759 1.1381 11.5555s-2.6765 7.4433-5.4736 10.2403c-2.797 2.7971-6.3607 4.7019-10.2403 5.4736s-7.901.3756-11.5555-1.1381c-3.6545-1.5138-6.77807-4.0772-8.97569-7.3662C1.17298 27.8224 0 23.9556 0 20h10c0 1.9778.5865 3.9112 1.6853 5.5557 1.0988 1.6445 2.6606 2.9262 4.4879 3.6831 1.8272.7569 3.8379.9549 5.7777.569 1.9398-.3858 3.7216-1.3382 5.1202-2.7367 1.3985-1.3986 2.3509-3.1804 2.7367-5.1202.3859-1.9398.1879-3.9505-.569-5.7777-.7569-1.8273-2.0386-3.3891-3.6831-4.4879Z" class="ccustom" clip-rule="evenodd"/>
  <path fill="currentColor" fill-rule="evenodd" d="M10 .00000147C10 1.31322 9.74135 2.61358 9.2388 3.82684c-.50255 1.21325-1.23914 2.31564-2.16773 3.24423-.92858.92859-2.03097 1.66518-3.24423 2.16773C2.61358 9.74134 1.31322 10 .00000616 10l-4.4e-7 10C2.62644 20 5.22716 19.4827 7.65368 18.4776s4.63132-2.4783 6.48842-4.3355c1.8572-1.8571 3.3304-4.0619 4.3355-6.48843C19.4827 5.22715 20 2.62643 20-.00000381L10 .00000147Z" class="ccustom" clip-rule="evenodd"/>
  <path fill="currentColor" d="M125.619 14.4525h-4.852v15.4123h4.852V14.4525ZM121.307 11.5666c.507.5074 1.141.7611 1.902.7611.761 0 1.385-.2537 1.871-.7611.487-.5285.73-1.1628.73-1.90275 0-.76108-.243-1.39536-.73-1.90274C124.594 7.25369 123.97 7 123.209 7c-.761 0-1.395.25369-1.902.76111-.487.50738-.73 1.14166-.73 1.90274 0 .73995.243 1.37425.73 1.90275ZM51.1562 29.8648V7.47568h4.9789V25.4885h9.9261v4.3763h-14.905Z" class="ccustom"/>
  <path fill="currentColor" fill-rule="evenodd" d="M75.0274 30.2136c-1.5856 0-3.0232-.3488-4.3129-1.0465-1.2685-.7188-2.2727-1.6913-3.0127-2.9176-.7399-1.2262-1.1099-2.6004-1.1099-4.1226 0-1.5222.37-2.8858 1.1099-4.0909.74-1.2051 1.7442-2.1565 3.0127-2.8541 1.2685-.7189 2.7062-1.0783 4.3129-1.0783 1.6068 0 3.0444.3489 4.3129 1.0465 1.2685.6977 2.2728 1.6597 3.0127 2.8859.74 1.2051 1.11 2.5687 1.11 4.0909 0 1.5222-.37 2.8964-1.11 4.1226-.7399 1.2263-1.7442 2.1988-3.0127 2.9176-1.2685.6977-2.7061 1.0465-4.3129 1.0465Zm0-4.408c.6977 0 1.3108-.148 1.8394-.444.5285-.3171.9302-.7505 1.205-1.3002.296-.5708.444-1.2157.444-1.9345 0-.7188-.148-1.3425-.444-1.871-.296-.5497-.7082-.9725-1.2368-1.2685-.5074-.3172-1.1099-.4757-1.8076-.4757-.6765 0-1.279.1585-1.8076.4757-.5285.296-.9408.7188-1.2368 1.2685-.296.5497-.4439 1.1839-.4439 1.9027 0 .6977.1479 1.332.4439 1.9028.296.5497.7083.9831 1.2368 1.3002.5286.296 1.1311.444 1.8076.444ZM87.3057 35.8902c1.2896.5919 2.7801.8879 4.4715.8879 1.649 0 3.1184-.3277 4.408-.9831 1.2897-.6554 2.3044-1.5644 3.0444-2.7272.7399-1.1628 1.1104-2.537 1.1104-4.1227V14.4525h-4.7574v1.0355c-.3538-.2978-.7556-.5478-1.205-.7501-.8246-.4017-1.7654-.6026-2.8224-.6026-1.4165 0-2.6745.3383-3.7738 1.0148-1.0995.6554-1.9662 1.5645-2.6005 2.7273-.6343 1.1417-.9513 2.4313-.9513 3.869 0 1.4165.317 2.7061.9513 3.8689.6343 1.1628 1.501 2.0825 2.6005 2.759 1.0993.6765 2.3573 1.0148 3.7738 1.0148 1.0359 0 1.9767-.2008 2.8224-.6025.4096-.1946.7796-.4239 1.1099-.688v.9734c0 1.0782-.3488 1.9133-1.0465 2.5053-.6765.592-1.6173.8879-2.8224.8879-.9725 0-1.8076-.1691-2.5053-.5074-.6765-.3382-1.2897-.8351-1.8394-1.4905l-2.9809 2.981c.7399 1.0571 1.7442 1.8711 3.0127 2.4419Zm6.9133-11.258c-.4863.296-1.0676.444-1.7442.444-.6765 0-1.2685-.148-1.7759-.444-.4863-.296-.8668-.6977-1.1416-1.2051-.2749-.5285-.4123-1.0888-.4123-1.6807 0-.6343.1374-1.2051.4123-1.7125.2748-.5074.6659-.9091 1.1733-1.2051.5074-.296 1.0888-.444 1.7442-.444.6766 0 1.2579.148 1.7442.444.5074.296.8879.6977 1.1417 1.2051.2748.5074.4122 1.0782.4122 1.7125 0 .6342-.1374 1.205-.4122 1.7124-.2538.4863-.6343.8774-1.1417 1.1734ZM110.551 30.2136c-1.586 0-3.024-.3488-4.313-1.0465-1.269-.7188-2.273-1.6913-3.013-2.9176-.74-1.2262-1.11-2.6004-1.11-4.1226 0-1.5222.37-2.8858 1.11-4.0909.74-1.2051 1.744-2.1565 3.013-2.8541 1.268-.7189 2.706-1.0783 4.313-1.0783 1.606 0 3.044.3489 4.312 1.0465 1.269.6977 2.273 1.6597 3.013 2.8859.74 1.2051 1.11 2.5687 1.11 4.0909 0 1.5222-.37 2.8964-1.11 4.1226-.74 1.2263-1.744 2.1988-3.013 2.9176-1.268.6977-2.706 1.0465-4.312 1.0465Zm0-4.408c.697 0 1.31-.148 1.839-.444.528-.3171.93-.7505 1.205-1.3002.296-.5708.444-1.2157.444-1.9345 0-.7188-.148-1.3425-.444-1.871-.296-.5497-.708-.9725-1.237-1.2685-.507-.3172-1.11-.4757-1.807-.4757-.677 0-1.28.1585-1.808.4757-.529.296-.941.7188-1.237 1.2685-.296.5497-.444 1.1839-.444 1.9027 0 .6977.148 1.332.444 1.9028.296.5497.708.9831 1.237 1.3002.528.296 1.131.444 1.808.444ZM137.281 30.1819c-1.035 0-1.987-.2008-2.854-.6025-.456-.2114-.868-.4638-1.236-.7572v7.5437h-4.789V14.4525h4.852v1.0637c.352-.2879.743-.5368 1.173-.7466.867-.4229 1.819-.6343 2.854-.6343 1.459 0 2.749.3489 3.869 1.0466 1.142.6976 2.03 1.649 2.664 2.8541.656 1.2051.983 2.5793.983 4.1226 0 1.5434-.327 2.9176-.983 4.1227-.634 1.2051-1.522 2.1564-2.664 2.8541-1.12.6977-2.41 1.0465-3.869 1.0465Zm-.887-4.3763c.697 0 1.3-.1586 1.807-.4757.529-.3171.941-.7506 1.237-1.3002.296-.5497.444-1.1734.444-1.8711 0-.7188-.148-1.353-.444-1.9027-.296-.5497-.708-.9725-1.237-1.2685-.507-.3172-1.099-.4757-1.776-.4757-.676 0-1.279.1585-1.807.4757-.508.296-.909.7188-1.205 1.2685-.296.5497-.444 1.1839-.444 1.9027 0 .6977.137 1.3214.412 1.8711.296.5496.708.9831 1.237 1.3002.528.3171 1.12.4757 1.776.4757Z" class="ccustom" clip-rule="evenodd"/>
  <path fill="currentColor" d="M149.546 29.8965c.888.2326 1.786.3488 2.695.3488 1.924 0 3.446-.4439 4.567-1.3319 1.141-.8879 1.712-2.0824 1.712-3.5835 0-.9725-.179-1.7548-.539-2.3467-.359-.6131-.824-1.0994-1.395-1.4588-.571-.3594-1.174-.6449-1.808-.8563-.634-.2114-1.237-.3911-1.807-.5391-.571-.148-1.036-.3171-1.396-.5074-.359-.1903-.539-.444-.539-.7611 0-.296.138-.518.412-.666.275-.1691.687-.2536 1.237-.2536.571 0 1.152.1162 1.744.3488.613.2325 1.163.6343 1.649 1.2051l2.759-2.7907c-.697-.888-1.606-1.554-2.727-1.9979-1.099-.4651-2.304-.6977-3.615-.6977-1.247 0-2.336.2114-3.266.6342-.931.4229-1.65 1.0043-2.157 1.7442-.507.7188-.761 1.5751-.761 2.5688 0 .9302.18 1.7019.539 2.315.359.5919.825 1.0571 1.395 1.3953.571.3383 1.174.6026 1.808.7928.634.1903 1.237.37 1.808.5392.57.148 1.036.3277 1.395.5391.381.1903.571.4757.571.8562 0 .296-.159.5285-.476.6977-.296.1691-.729.2537-1.3.2537-.825 0-1.586-.148-2.283-.444-.698-.3171-1.301-.7505-1.808-1.3002l-2.759 2.7907c.529.5708 1.163 1.0783 1.903 1.5222.761.4228 1.575.7505 2.442.9831ZM167.368 30.2136c-1.416 0-2.674-.2854-3.773-.8562-1.079-.592-1.924-1.3954-2.537-2.4102-.614-1.0359-.92-2.2198-.92-3.5518v-8.9429h4.852v8.8795c0 .5285.084.9831.254 1.3636.19.3806.465.6766.824.888.36.2114.793.3171 1.3.3171.719 0 1.29-.222 1.713-.666.423-.4651.634-1.0993.634-1.9027v-8.8795h4.852v8.9112c0 1.3531-.306 2.5476-.92 3.5835-.613 1.0148-1.458 1.8182-2.537 2.4102-1.078.5708-2.325.8562-3.742.8562ZM181.831 14.4525h-4.852v15.4123h4.852v-9.0064c0-.5285.106-.9725.317-1.3319.233-.3594.54-.6343.92-.8245.381-.2115.814-.3172 1.3-.3172.698 0 1.279.222 1.744.666.487.4228.73 1.0254.73 1.8076v9.0064h4.852v-9.0064c0-.5285.106-.9725.317-1.3319.233-.3594.539-.6343.92-.8245.38-.2115.814-.3172 1.3-.3172.698 0 1.279.222 1.744.666.486.4228.729 1.0254.729 1.8076v9.0064h4.853v-9.5455c0-1.2896-.275-2.389-.825-3.2981-.529-.9303-1.258-1.6385-2.188-2.1247-.909-.5075-1.956-.7612-3.14-.7612-1.205 0-2.294.2643-3.266.7929-.632.3367-1.184.7713-1.657 1.3037-.441-.5569-.977-1.0126-1.61-1.3672-.845-.4862-1.807-.7294-2.885-.7294-1.142 0-2.167.2432-3.076.7294-.396.2023-.755.4446-1.079.7269v-1.1391Z" class="ccustom"/>
</svg>